<svg width="24" height="25" viewBox="0 0 24 25" fill="none" xmlns="http://www.w3.org/2000/svg">
<g clip-path="url(#clip0_4044_810)">
<path d="M14.707 5.78826L20.364 11.4453C20.5515 11.6328 20.6568 11.8871 20.6568 12.1523C20.6568 12.4174 20.5515 12.6717 20.364 12.8593L14.707 18.5163C14.5184 18.6984 14.2658 18.7992 14.0036 18.7969C13.7414 18.7947 13.4906 18.6895 13.3052 18.5041C13.1198 18.3187 13.0146 18.0679 13.0123 17.8057C13.01 17.5435 13.1108 17.2909 13.293 17.1023L17.243 13.1523H4C3.73478 13.1523 3.48043 13.0469 3.29289 12.8594C3.10536 12.6718 3 12.4175 3 12.1523C3 11.887 3.10536 11.6327 3.29289 11.4452C3.48043 11.2576 3.73478 11.1523 4 11.1523H17.243L13.293 7.20226C13.1975 7.11001 13.1213 6.99967 13.0689 6.87766C13.0165 6.75566 12.9889 6.62444 12.9877 6.49166C12.9866 6.35888 13.0119 6.2272 13.0622 6.10431C13.1125 5.98141 13.1867 5.86976 13.2806 5.77586C13.3745 5.68197 13.4861 5.60772 13.609 5.55744C13.7319 5.50716 13.8636 5.48186 13.9964 5.48301C14.1292 5.48416 14.2604 5.51175 14.3824 5.56416C14.5044 5.61657 14.6148 5.69275 14.707 5.78826Z" fill="white"/>
</g>
<defs>
<clipPath id="clip0_4044_810">
<rect width="24" height="24" fill="white" transform="translate(0 0.152252)"/>
</clipPath>
</defs>
</svg>
