<svg width="24" height="25" viewBox="0 0 24 25" fill="none" xmlns="http://www.w3.org/2000/svg">
<g clip-path="url(#clip0_4096_694)">
<path fill-rule="evenodd" clip-rule="evenodd" d="M12.0001 13.8973L17.6571 19.5543C17.8457 19.7365 18.0983 19.8373 18.3605 19.835C18.6227 19.8327 18.8735 19.7275 19.0589 19.5421C19.2443 19.3567 19.3495 19.1059 19.3517 18.8437C19.354 18.5815 19.2532 18.3289 19.0711 18.1403L13.4141 12.4833L19.0711 6.82632C19.2532 6.63772 19.354 6.38511 19.3517 6.12292C19.3495 5.86072 19.2443 5.60991 19.0589 5.4245C18.8735 5.23909 18.6227 5.13392 18.3605 5.13164C18.0983 5.12937 17.8457 5.23016 17.6571 5.41232L12.0001 11.0693L6.34307 5.41232C6.15362 5.23466 5.90248 5.13768 5.6428 5.1419C5.38311 5.14612 5.13526 5.2512 4.95168 5.43491C4.76809 5.61863 4.66319 5.86655 4.65915 6.12624C4.65512 6.38593 4.75228 6.63699 4.93007 6.82632L10.5861 12.4833L4.92907 18.1403C4.83356 18.2326 4.75738 18.3429 4.70497 18.4649C4.65256 18.5869 4.62497 18.7181 4.62382 18.8509C4.62266 18.9837 4.64796 19.1154 4.69825 19.2383C4.74853 19.3612 4.82278 19.4728 4.91667 19.5667C5.01057 19.6606 5.12222 19.7349 5.24511 19.7851C5.36801 19.8354 5.49969 19.8607 5.63247 19.8596C5.76525 19.8584 5.89647 19.8308 6.01847 19.7784C6.14048 19.726 6.25082 19.6498 6.34307 19.5543L12.0001 13.8973Z" fill="#0B0B0D"/>
</g>
<defs>
<clipPath id="clip0_4096_694">
<rect width="24" height="24" fill="white" transform="translate(0 0.483322)"/>
</clipPath>
</defs>
</svg>
