<svg width="42" height="35" viewBox="0 0 42 35" fill="none" xmlns="http://www.w3.org/2000/svg">
<path d="M39.2501 5.50052C39.9523 4.98864 40.1098 4.00427 39.598 3.30208C39.0861 2.59989 38.1017 2.44239 37.3995 2.95427L32.5104 6.51114L31.8608 6.07802C30.568 5.21177 29.0455 4.75239 27.4901 4.75239H14.1551C12.403 4.75239 10.7098 5.33645 9.33826 6.39958L4.60014 2.95427C3.89795 2.44239 2.91358 2.59989 2.4017 3.30208C1.88983 4.00427 2.04733 4.98864 2.74952 5.50052L8.52451 9.70052C9.15451 10.1533 10.0142 10.0877 10.5655 9.54302L10.8214 9.28708C11.7073 8.40114 12.9083 7.90239 14.1617 7.90239H17.2001L11.1823 13.9202C10.1586 14.944 10.1586 16.6043 11.1823 17.6346L11.2348 17.6871C14.3061 20.7649 19.2936 20.7649 22.3714 17.6871L24.1498 15.9086L30.5679 22.3268C31.5917 23.3505 31.5917 25.0108 30.5679 26.0411L29.9248 26.6843L27.8905 24.6499C27.2736 24.033 26.2761 24.033 25.6658 24.6499C25.0555 25.2668 25.0489 26.2643 25.6658 26.8746L27.5033 28.7121C26.3548 29.3946 25.062 29.808 23.7233 29.9261L20.5405 26.7368C19.9236 26.1199 18.9261 26.1199 18.3158 26.7368C17.7055 27.3536 17.6989 28.3511 18.3158 28.9615L19.3001 29.9458H19.0508C16.6817 29.9458 14.4111 29.0074 12.7376 27.334L4.26545 18.8618C3.64858 18.2449 2.65108 18.2449 2.04076 18.8618C1.43045 19.4786 1.42389 20.4761 2.04076 21.0865L10.513 29.5652C12.777 31.8293 15.8483 33.1024 19.0508 33.1024H22.4501L22.5158 33.168L22.5814 33.1024H22.9554C26.1579 33.1024 29.2292 31.8293 31.4933 29.5652L32.7992 28.2593C32.8779 28.1805 32.9501 28.1083 33.0223 28.0296C33.0683 27.9968 33.1076 27.9574 33.147 27.918L39.9654 21.093C40.5823 20.4761 40.5823 19.4786 39.9654 18.8683C39.3486 18.258 38.3511 18.2515 37.7408 18.8683L34.2101 22.399C33.9345 21.559 33.4686 20.7649 32.7992 20.0955L25.2655 12.5618C24.6486 11.9449 23.6511 11.9449 23.0408 12.5618L20.1467 15.4558C18.4076 17.1949 15.6514 17.2933 13.8008 15.7577L20.278 9.28052C21.1573 8.40114 22.3517 7.90239 23.5986 7.89583H27.5033C28.4351 7.89583 29.3473 8.17145 30.1217 8.68989L31.677 9.73989C32.2283 10.1074 32.9436 10.0877 33.4751 9.70052L39.2501 5.50052Z" fill="#0B0B0D"/>
</svg>
