<svg width="24" height="25" viewBox="0 0 24 25" fill="none" xmlns="http://www.w3.org/2000/svg">
<path d="M21 7.99167H3C2.59 7.99167 2.25 7.65167 2.25 7.24167C2.25 6.83167 2.59 6.49167 3 6.49167H21C21.41 6.49167 21.75 6.83167 21.75 7.24167C21.75 7.65167 21.41 7.99167 21 7.99167Z" fill="#0B0B0D"/>
<path d="M21 12.9917H3C2.59 12.9917 2.25 12.6517 2.25 12.2417C2.25 11.8317 2.59 11.4917 3 11.4917H21C21.41 11.4917 21.75 11.8317 21.75 12.2417C21.75 12.6517 21.41 12.9917 21 12.9917Z" fill="#0B0B0D"/>
<path d="M21 17.9917H3C2.59 17.9917 2.25 17.6517 2.25 17.2417C2.25 16.8317 2.59 16.4917 3 16.4917H21C21.41 16.4917 21.75 16.8317 21.75 17.2417C21.75 17.6517 21.41 17.9917 21 17.9917Z" fill="#0B0B0D"/>
</svg>
