<svg width="160" height="25" viewBox="0 0 160 25" fill="none" xmlns="http://www.w3.org/2000/svg">
<g clip-path="url(#clip0_4080_588)">
<path d="M10.92 3.8201C11.03 3.63126 11.1877 3.47457 11.3772 3.36567C11.5667 3.25677 11.7814 3.19946 12 3.19946C12.2185 3.19946 12.4333 3.25677 12.6228 3.36567C12.8123 3.47457 12.9699 3.63126 13.08 3.8201L15.875 8.6181L21.303 9.7941C21.5165 9.84049 21.7141 9.94205 21.8761 10.0886C22.0382 10.2352 22.159 10.4217 22.2264 10.6295C22.2939 10.8373 22.3058 11.0592 22.2608 11.273C22.2158 11.4868 22.1155 11.6851 21.97 11.8481L18.27 15.9891L18.83 21.5141C18.8521 21.7317 18.8167 21.9512 18.7274 22.1508C18.6381 22.3504 18.498 22.5231 18.3211 22.6517C18.1442 22.7802 17.9367 22.8601 17.7192 22.8833C17.5018 22.9065 17.2821 22.8723 17.082 22.7841L12 20.5441L6.91799 22.7841C6.7179 22.8723 6.49818 22.9065 6.28074 22.8833C6.0633 22.8601 5.85577 22.7802 5.67886 22.6517C5.50195 22.5231 5.36185 22.3504 5.27255 22.1508C5.18326 21.9512 5.14789 21.7317 5.16999 21.5141L5.72999 15.9891L2.02999 11.8491C1.88421 11.6861 1.78374 11.4878 1.7386 11.2738C1.69346 11.0599 1.70523 10.8378 1.77273 10.6299C1.84023 10.4219 1.96111 10.2352 2.12329 10.0886C2.28547 9.94194 2.48329 9.8404 2.69699 9.7941L8.12499 8.6181L10.92 3.8201Z" fill="#09244B"/>
</g>
<g clip-path="url(#clip1_4080_588)">
<path d="M44.92 3.8201C45.03 3.63126 45.1877 3.47457 45.3772 3.36567C45.5667 3.25677 45.7814 3.19946 46 3.19946C46.2185 3.19946 46.4333 3.25677 46.6228 3.36567C46.8123 3.47457 46.9699 3.63126 47.08 3.8201L49.875 8.6181L55.303 9.7941C55.5165 9.84049 55.7141 9.94205 55.8761 10.0886C56.0382 10.2352 56.159 10.4217 56.2264 10.6295C56.2939 10.8373 56.3058 11.0592 56.2608 11.273C56.2158 11.4868 56.1155 11.6851 55.97 11.8481L52.27 15.9891L52.83 21.5141C52.8521 21.7317 52.8167 21.9512 52.7274 22.1508C52.6381 22.3504 52.498 22.5231 52.3211 22.6517C52.1442 22.7802 51.9367 22.8601 51.7192 22.8833C51.5018 22.9065 51.2821 22.8723 51.082 22.7841L46 20.5441L40.918 22.7841C40.7179 22.8723 40.4982 22.9065 40.2807 22.8833C40.0633 22.8601 39.8558 22.7802 39.6789 22.6517C39.5019 22.5231 39.3618 22.3504 39.2726 22.1508C39.1833 21.9512 39.1479 21.7317 39.17 21.5141L39.73 15.9891L36.03 11.8491C35.8842 11.6861 35.7837 11.4878 35.7386 11.2738C35.6935 11.0599 35.7052 10.8378 35.7727 10.6299C35.8402 10.4219 35.9611 10.2352 36.1233 10.0886C36.2855 9.94194 36.4833 9.8404 36.697 9.7941L42.125 8.6181L44.92 3.8201Z" fill="#09244B"/>
</g>
<g clip-path="url(#clip2_4080_588)">
<path d="M78.92 3.8201C79.03 3.63126 79.1877 3.47457 79.3772 3.36567C79.5667 3.25677 79.7814 3.19946 80 3.19946C80.2185 3.19946 80.4333 3.25677 80.6228 3.36567C80.8123 3.47457 80.9699 3.63126 81.08 3.8201L83.875 8.6181L89.303 9.7941C89.5165 9.84049 89.7141 9.94205 89.8761 10.0886C90.0382 10.2352 90.159 10.4217 90.2264 10.6295C90.2939 10.8373 90.3058 11.0592 90.2608 11.273C90.2158 11.4868 90.1155 11.6851 89.97 11.8481L86.27 15.9891L86.83 21.5141C86.8521 21.7317 86.8167 21.9512 86.7274 22.1508C86.6381 22.3504 86.498 22.5231 86.3211 22.6517C86.1442 22.7802 85.9367 22.8601 85.7192 22.8833C85.5018 22.9065 85.2821 22.8723 85.082 22.7841L80 20.5441L74.918 22.7841C74.7179 22.8723 74.4982 22.9065 74.2807 22.8833C74.0633 22.8601 73.8558 22.7802 73.6789 22.6517C73.5019 22.5231 73.3618 22.3504 73.2726 22.1508C73.1833 21.9512 73.1479 21.7317 73.17 21.5141L73.73 15.9891L70.03 11.8491C69.8842 11.6861 69.7837 11.4878 69.7386 11.2738C69.6935 11.0599 69.7052 10.8378 69.7727 10.6299C69.8402 10.4219 69.9611 10.2352 70.1233 10.0886C70.2855 9.94194 70.4833 9.8404 70.697 9.7941L76.125 8.6181L78.92 3.8201Z" fill="#09244B"/>
</g>
<g clip-path="url(#clip3_4080_588)">
<path d="M112.92 3.8201C113.03 3.63126 113.188 3.47457 113.377 3.36567C113.567 3.25677 113.781 3.19946 114 3.19946C114.219 3.19946 114.433 3.25677 114.623 3.36567C114.812 3.47457 114.97 3.63126 115.08 3.8201L117.875 8.6181L123.303 9.7941C123.516 9.84049 123.714 9.94205 123.876 10.0886C124.038 10.2352 124.159 10.4217 124.226 10.6295C124.294 10.8373 124.306 11.0592 124.261 11.273C124.216 11.4868 124.116 11.6851 123.97 11.8481L120.27 15.9891L120.83 21.5141C120.852 21.7317 120.817 21.9512 120.727 22.1508C120.638 22.3504 120.498 22.5231 120.321 22.6517C120.144 22.7802 119.937 22.8601 119.719 22.8833C119.502 22.9065 119.282 22.8723 119.082 22.7841L114 20.5441L108.918 22.7841C108.718 22.8723 108.498 22.9065 108.281 22.8833C108.063 22.8601 107.856 22.7802 107.679 22.6517C107.502 22.5231 107.362 22.3504 107.273 22.1508C107.183 21.9512 107.148 21.7317 107.17 21.5141L107.73 15.9891L104.03 11.8491C103.884 11.6861 103.784 11.4878 103.739 11.2738C103.693 11.0599 103.705 10.8378 103.773 10.6299C103.84 10.4219 103.961 10.2352 104.123 10.0886C104.285 9.94194 104.483 9.8404 104.697 9.7941L110.125 8.6181L112.92 3.8201Z" fill="#09244B"/>
</g>
<g clip-path="url(#clip4_4080_588)">
<path d="M146.92 3.8201C147.03 3.63126 147.188 3.47457 147.377 3.36567C147.567 3.25677 147.781 3.19946 148 3.19946C148.219 3.19946 148.433 3.25677 148.623 3.36567C148.812 3.47457 148.97 3.63126 149.08 3.8201L151.875 8.6181L157.303 9.7941C157.516 9.84049 157.714 9.94205 157.876 10.0886C158.038 10.2352 158.159 10.4217 158.226 10.6295C158.294 10.8373 158.306 11.0592 158.261 11.273C158.216 11.4868 158.116 11.6851 157.97 11.8481L154.27 15.9891L154.83 21.5141C154.852 21.7317 154.817 21.9512 154.727 22.1508C154.638 22.3504 154.498 22.5231 154.321 22.6517C154.144 22.7802 153.937 22.8601 153.719 22.8833C153.502 22.9065 153.282 22.8723 153.082 22.7841L148 20.5441L142.918 22.7841C142.718 22.8723 142.498 22.9065 142.281 22.8833C142.063 22.8601 141.856 22.7802 141.679 22.6517C141.502 22.5231 141.362 22.3504 141.273 22.1508C141.183 21.9512 141.148 21.7317 141.17 21.5141L141.73 15.9891L138.03 11.8491C137.884 11.6861 137.784 11.4878 137.739 11.2738C137.693 11.0599 137.705 10.8378 137.773 10.6299C137.84 10.4219 137.961 10.2352 138.123 10.0886C138.285 9.94194 138.483 9.8404 138.697 9.7941L144.125 8.6181L146.92 3.8201Z" fill="#09244B"/>
</g>
<defs>
<clipPath id="clip0_4080_588">
<rect width="24" height="24" fill="white" transform="translate(0 0.952148)"/>
</clipPath>
<clipPath id="clip1_4080_588">
<rect width="24" height="24" fill="white" transform="translate(34 0.952148)"/>
</clipPath>
<clipPath id="clip2_4080_588">
<rect width="24" height="24" fill="white" transform="translate(68 0.952148)"/>
</clipPath>
<clipPath id="clip3_4080_588">
<rect width="24" height="24" fill="white" transform="translate(102 0.952148)"/>
</clipPath>
<clipPath id="clip4_4080_588">
<rect width="24" height="24" fill="white" transform="translate(136 0.952148)"/>
</clipPath>
</defs>
</svg>
