<svg width="42" height="43" viewBox="0 0 42 43" fill="none" xmlns="http://www.w3.org/2000/svg">
<path d="M18.5254 3.82723C19.1449 3.20855 19.9738 2.84452 20.8485 2.80694C21.7232 2.76936 22.5802 3.06097 23.2504 3.62423L23.4744 3.82898L26.7994 7.15223H31.4999C32.3827 7.15239 33.2327 7.48607 33.8798 8.08644C34.5269 8.6868 34.9232 9.5095 34.9894 10.3897L34.9999 10.6522V15.3527L38.3249 18.6777C38.9441 19.2973 39.3085 20.1265 39.346 21.0016C39.3836 21.8767 39.0917 22.7341 38.5279 23.4045L38.3232 23.6267L34.9982 26.9517V31.6522C34.9985 32.5352 34.665 33.3857 34.0646 34.0332C33.4642 34.6807 32.6412 35.0773 31.7607 35.1435L31.4999 35.1522H26.8012L23.4762 38.4772C22.8566 39.0964 22.0274 39.4607 21.1523 39.4983C20.2772 39.5359 19.4198 39.244 18.7494 38.6802L18.5272 38.4772L15.2022 35.1522H10.4999C9.61694 35.1525 8.76646 34.819 8.11899 34.2186C7.47152 33.6182 7.07492 32.7952 7.0087 31.9147L6.99995 31.6522V26.9517L3.67495 23.6267C3.05579 23.0072 2.69144 22.178 2.65386 21.3028C2.61628 20.4277 2.90819 19.5703 3.47195 18.9L3.67495 18.6777L6.99995 15.3527V10.6522C7.00011 9.76952 7.3338 8.91947 7.93416 8.27237C8.53453 7.62528 9.35723 7.22893 10.2374 7.16273L10.4999 7.15223H15.2004L18.5254 3.82723ZM20.9999 6.30523L17.6749 9.63022C17.0937 10.2106 16.3267 10.5681 15.5084 10.64L15.2004 10.6522H10.4999V15.3527C10.5002 16.175 10.2108 16.9712 9.6827 17.6015L9.47445 17.829L6.14945 21.154L9.47445 24.4772C10.0555 25.0583 10.4136 25.8252 10.4859 26.6437L10.4999 26.9517V31.6522H15.2004C16.0228 31.652 16.8189 31.9413 17.4492 32.4695L17.6767 32.6777L20.9999 36.0027L24.3249 32.6777C24.906 32.0967 25.6729 31.7386 26.4914 31.6662L26.7994 31.6522H31.4999V26.9517C31.4997 26.1294 31.7891 25.3333 32.3172 24.703L32.5254 24.4755L35.8504 21.1522L32.5254 17.8272C31.9444 17.2462 31.5863 16.4792 31.5139 15.6607L31.4999 15.3527V10.6522H26.7994C25.9771 10.6524 25.181 10.3631 24.5507 9.83498L24.3232 9.62673L20.9982 6.30173L20.9999 6.30523ZM26.3899 15.8742C26.7049 15.5604 27.1275 15.3781 27.5719 15.3646C28.0163 15.351 28.4492 15.5071 28.7827 15.8012C29.1162 16.0952 29.3252 16.5052 29.3674 16.9478C29.4096 17.3904 29.2817 17.8325 29.0097 18.1842L28.8627 18.3487L20.3227 26.8887C19.9893 27.2226 19.5449 27.4223 19.0738 27.4501C18.6028 27.4778 18.138 27.3316 17.7677 27.0392L17.5997 26.8905L13.3927 22.6835C13.0755 22.3693 12.8904 21.9457 12.8753 21.4995C12.8601 21.0533 13.0161 20.6182 13.3113 20.2832C13.6064 19.9482 14.0185 19.7387 14.463 19.6976C14.9076 19.6565 15.3511 19.7868 15.7027 20.062L15.8672 20.2072L18.9612 23.3012L26.3899 15.8742Z" fill="white"/>
</svg>
